<svg width="24" height="22" viewBox="0 0 24 22" fill="none" xmlns="http://www.w3.org/2000/svg">
<g clip-path="url(#clip0_60410_84)">
<path d="M7.01394 16.2989C6.01433 16.2498 6.03315 14.8978 7.01389 14.8509C9.79202 14.8602 17.1196 14.8534 19.9861 14.8553C20.7701 14.8553 21.4408 14.3423 21.6172 13.6078L23.2448 6.83061C23.3381 6.44256 23.244 6.04094 22.9868 5.72877C22.7296 5.41661 22.3446 5.23506 21.9305 5.23506C20.7773 5.23506 10.9889 5.19245 5.97529 5.17324L5.18055 2.33781C4.98977 1.66022 4.34669 1.18701 3.61664 1.18701H1.07069C0.700305 1.18701 0.400024 1.47574 0.400024 1.83189C0.400024 2.18803 0.700305 2.47676 1.07069 2.47676H3.61664C3.74232 2.47676 3.85298 2.55823 3.88567 2.67418L6.93788 13.5629C6.40121 13.5817 5.90134 13.7915 5.52228 14.1614C5.12399 14.55 4.91009 15.0644 4.91997 15.61C4.93974 16.701 5.87908 17.5886 7.01394 17.5886H7.99186C7.8465 17.8819 7.76491 18.2099 7.76491 18.5559C7.76491 19.8005 8.81795 20.8131 10.1123 20.8131C11.4067 20.8131 12.4598 19.8005 12.4598 18.5559C12.4598 18.2099 12.3781 17.8819 12.2328 17.5886H16.4676C16.3224 17.8819 16.2408 18.2097 16.2408 18.5556C16.2408 19.8002 17.2939 20.8127 18.5882 20.8127C19.8826 20.8127 20.9357 19.8001 20.9357 18.5556C20.9357 18.1962 20.8475 17.8564 20.6914 17.5545C20.9568 17.4686 21.1482 17.2279 21.1482 16.9437C21.1482 16.5876 20.8479 16.2989 20.4775 16.2989H7.01394ZM11.1184 18.556C11.1184 19.0894 10.6671 19.5234 10.1123 19.5234C9.55751 19.5234 9.1062 19.0894 9.1062 18.556C9.1062 18.0228 9.55707 17.589 10.1114 17.5886H10.1131C10.6675 17.589 11.1184 18.0228 11.1184 18.556ZM18.5883 19.523C18.0336 19.523 17.5822 19.089 17.5822 18.5556C17.5822 18.0275 18.0248 17.5971 18.572 17.5886H18.6047C19.1519 17.5971 19.5945 18.0275 19.5945 18.5556C19.5944 19.089 19.1431 19.523 18.5883 19.523ZM21.9354 6.52953C21.9394 6.53435 21.9388 6.53663 21.9379 6.54033L21.2521 9.39604H18.9297L19.3252 6.51462L21.9251 6.52468C21.9291 6.52476 21.9314 6.52476 21.9354 6.52953ZM15.021 13.5655V10.6858H17.3997L17.0045 13.5655H15.021ZM11.6953 13.5655L11.2968 10.6858H13.6797V13.5655H11.6953ZM8.60785 13.5655H8.60575C8.44228 13.5655 8.29827 13.4595 8.25575 13.3084L7.5206 10.6858H9.94364L10.3421 13.5655H8.60785ZM11.1183 9.39608L10.715 6.4813L13.6796 6.49278V9.39608H11.1183ZM15.021 9.39608V6.49798L17.9729 6.50941L17.5767 9.39608H15.021ZM9.3611 6.47601L9.76515 9.39604H7.15907L6.33728 6.46427L9.3611 6.47601ZM19.9861 13.5655H18.3574L18.7527 10.6858H20.9423L20.3102 13.3176C20.2752 13.4636 20.1419 13.5655 19.9861 13.5655Z" fill="white"/>
</g>
<defs>
<clipPath id="clip0_60410_84">
<rect width="22.88" height="22" fill="white" transform="translate(0.400024)"/>
</clipPath>
</defs>
</svg>
