<svg width="30" height="30" viewBox="0 0 30 30" fill="none" xmlns="http://www.w3.org/2000/svg">
<circle cx="15" cy="15" r="15" fill="url(#paint0_linear_60454_498)"/>
<g clip-path="url(#clip0_60454_498)">
<path d="M13.7967 16.2028C12.4604 14.8665 12.1587 13.5302 12.0906 12.9949C12.0716 12.8468 12.1225 12.6984 12.2284 12.5932L13.3098 11.5123C13.4689 11.3533 13.4971 11.1056 13.3779 10.9149L11.6561 8.24138C11.5242 8.03023 11.2534 7.95402 11.0307 8.06541L8.26668 9.36717C8.08663 9.45583 7.98072 9.64713 8.00117 9.84679C8.14599 11.2227 8.74582 14.6049 12.0696 17.9289C15.3934 21.2529 18.7751 21.8525 20.1517 21.9973C20.3514 22.0178 20.5427 21.9119 20.6313 21.7318L21.9331 18.9678C22.0441 18.7456 21.9684 18.4755 21.7581 18.3433L19.0846 16.6221C18.894 16.5027 18.6463 16.5307 18.4872 16.6897L17.4063 17.771C17.3011 17.8769 17.1526 17.9279 17.0046 17.9089C16.4692 17.8408 15.133 17.5391 13.7967 16.2028Z" fill="white"/>
<path d="M19.1027 15.4828C18.8361 15.4828 18.62 15.2666 18.62 15C18.6177 13.0013 16.998 11.3816 14.9993 11.3793C14.7326 11.3793 14.5165 11.1632 14.5165 10.8966C14.5165 10.6299 14.7326 10.4138 14.9993 10.4138C17.531 10.4166 19.5827 12.4683 19.5855 15C19.5855 15.2666 19.3693 15.4828 19.1027 15.4828Z" fill="white"/>
<path d="M21.5165 15.4828C21.2499 15.4828 21.0338 15.2666 21.0338 15C21.03 11.6688 18.3305 8.96924 14.9993 8.96552C14.7326 8.96552 14.5165 8.74938 14.5165 8.48276C14.5165 8.21614 14.7326 8 14.9993 8C18.8635 8.00426 21.995 11.1358 21.9993 15C21.9993 15.128 21.9484 15.2508 21.8579 15.3414C21.7674 15.4319 21.6446 15.4828 21.5165 15.4828Z" fill="white"/>
</g>
<defs>
<linearGradient id="paint0_linear_60454_498" x1="15" y1="0" x2="15" y2="30" gradientUnits="userSpaceOnUse">
<stop stop-color="#6B68FF"/>
<stop offset="1" stop-color="#504CFF"/>
</linearGradient>
<clipPath id="clip0_60454_498">
<rect width="14" height="14" fill="white" transform="translate(8 8)"/>
</clipPath>
</defs>
</svg>
