<svg width="240" height="40" viewBox="0 0 240 40" fill="none" xmlns="http://www.w3.org/2000/svg">
<path d="M25.4 17.8C27.3333 18.5333 28.85 19.6333 29.95 21.1C31.05 22.5667 31.6 24.25 31.6 26.15C31.6 28.3167 30.8667 30.2 29.4 31.8C27.9333 33.4 25.95 34.6333 23.45 35.5C20.95 36.3333 18.2 36.75 15.2 36.75C12.8333 36.75 10.4167 36.4667 7.95 35.9C5.51667 35.3333 3.18333 34.4833 0.95 33.35L3.9 26.45C5.46667 27.25 7.13333 27.8667 8.9 28.3C10.7 28.7 12.4333 28.9 14.1 28.9C16.3 28.9 18.1 28.55 19.5 27.85C20.9 27.1167 21.6 26.1 21.6 24.8C21.6 23.7667 21.1667 23 20.3 22.5C19.4333 22 18.2667 21.75 16.8 21.75H7.85V14.5H16C17.3333 14.5 18.3667 14.2333 19.1 13.7C19.8333 13.1667 20.2 12.45 20.2 11.55C20.2 10.4167 19.6333 9.55 18.5 8.95C17.3667 8.31667 15.9 8 14.1 8C12.6333 8 11.0833 8.21667 9.45 8.65C7.81667 9.05 6.26667 9.63333 4.8 10.4L1.9 2.9C5.63333 1.1 9.73333 0.199999 14.2 0.199999C17.0667 0.199999 19.7167 0.616665 22.15 1.45C24.6167 2.25 26.5667 3.41666 28 4.95C29.4667 6.48333 30.2 8.3 30.2 10.4C30.2 12.0333 29.7667 13.5 28.9 14.8C28.0667 16.0667 26.9 17.0667 25.4 17.8ZM68.5031 36L68.4531 17.45L59.4531 32.55H55.0531L46.0531 17.85V36H36.9531V0.999998H45.1031L57.4031 21.2L69.4031 0.999998H77.5531L77.6531 36H68.5031Z" fill="#3C39D0"/>
<path d="M95.5977 8.45C100.098 8.45 103.531 9.48333 105.898 11.55C108.264 13.5833 109.448 16.7167 109.448 20.95V36H100.598V32.5C99.231 35.1333 96.5643 36.45 92.5977 36.45C90.4977 36.45 88.681 36.0833 87.1477 35.35C85.6143 34.6167 84.4477 33.6333 83.6477 32.4C82.881 31.1333 82.4977 29.7 82.4977 28.1C82.4977 25.5333 83.481 23.55 85.4477 22.15C87.4143 20.7167 90.4477 20 94.5477 20H99.9477C99.781 17.1333 97.8643 15.7 94.1977 15.7C92.8977 15.7 91.581 15.9167 90.2477 16.35C88.9143 16.75 87.781 17.3167 86.8477 18.05L83.6477 11.6C85.1477 10.6 86.9643 9.83333 89.0977 9.3C91.2643 8.73333 93.431 8.45 95.5977 8.45ZM95.2477 30.45C96.3477 30.45 97.3143 30.1833 98.1477 29.65C98.981 29.1167 99.581 28.3333 99.9477 27.3V24.95H95.8477C93.081 24.95 91.6977 25.8667 91.6977 27.7C91.6977 28.5333 92.0143 29.2 92.6477 29.7C93.281 30.2 94.1477 30.45 95.2477 30.45ZM128.763 36.45C125.763 36.45 123.08 35.85 120.713 34.65C118.346 33.45 116.496 31.7833 115.163 29.65C113.863 27.5167 113.213 25.1 113.213 22.4C113.213 19.7 113.863 17.3 115.163 15.2C116.496 13.0667 118.346 11.4167 120.713 10.25C123.08 9.05 125.763 8.45 128.763 8.45C131.83 8.45 134.48 9.11667 136.713 10.45C138.946 11.75 140.53 13.5667 141.463 15.9L134.113 19.65C132.88 17.2167 131.08 16 128.713 16C127.013 16 125.596 16.5667 124.463 17.7C123.363 18.8333 122.813 20.4 122.813 22.4C122.813 24.4333 123.363 26.0333 124.463 27.2C125.596 28.3333 127.013 28.9 128.713 28.9C131.08 28.9 132.88 27.6833 134.113 25.25L141.463 29C140.53 31.3333 138.946 33.1667 136.713 34.5C134.48 35.8 131.83 36.45 128.763 36.45ZM158.136 26.35H154.936V36H145.436V8.9H154.936V18.9H158.336L164.986 8.9H175.036L165.936 21.9L175.636 36H164.436L158.136 26.35ZM178.786 8.9H188.236V23.1L199.586 8.9H208.336V36H198.836V21.75L187.586 36H178.786V8.9ZM213.881 36.144C213.389 36.144 212.975 35.976 212.639 35.64C212.303 35.304 212.135 34.884 212.135 34.38C212.135 33.864 212.303 33.45 212.639 33.138C212.975 32.814 213.389 32.652 213.881 32.652C214.373 32.652 214.787 32.814 215.123 33.138C215.459 33.45 215.627 33.864 215.627 34.38C215.627 34.884 215.459 35.304 215.123 35.64C214.787 35.976 214.373 36.144 213.881 36.144ZM223.29 26.172C224.19 26.172 225.006 26.382 225.738 26.802C226.482 27.21 227.064 27.792 227.484 28.548C227.904 29.292 228.114 30.162 228.114 31.158C228.114 32.154 227.904 33.03 227.484 33.786C227.064 34.53 226.482 35.112 225.738 35.532C225.006 35.94 224.19 36.144 223.29 36.144C222.054 36.144 221.082 35.754 220.374 34.974V39.492H217.566V26.316H220.248V27.432C220.944 26.592 221.958 26.172 223.29 26.172ZM222.804 33.84C223.524 33.84 224.112 33.6 224.568 33.12C225.036 32.628 225.27 31.974 225.27 31.158C225.27 30.342 225.036 29.694 224.568 29.214C224.112 28.722 223.524 28.476 222.804 28.476C222.084 28.476 221.49 28.722 221.022 29.214C220.566 29.694 220.338 30.342 220.338 31.158C220.338 31.974 220.566 32.628 221.022 33.12C221.49 33.6 222.084 33.84 222.804 33.84ZM239.521 26.316L235.147 36.594C234.703 37.71 234.151 38.496 233.491 38.952C232.843 39.408 232.057 39.636 231.133 39.636C230.629 39.636 230.131 39.558 229.639 39.402C229.147 39.246 228.745 39.03 228.433 38.754L229.459 36.756C229.675 36.948 229.921 37.098 230.197 37.206C230.485 37.314 230.767 37.368 231.043 37.368C231.427 37.368 231.739 37.272 231.979 37.08C232.219 36.9 232.435 36.594 232.627 36.162L232.663 36.072L228.469 26.316H231.367L234.085 32.886L236.821 26.316H239.521Z" fill="#2B2A2A"/>
</svg>
