<svg width="40" height="34" viewBox="0 0 40 34" fill="#4945FF" xmlns="http://www.w3.org/2000/svg">
    <path d="M36.6474 1.79453C34.7249 1.02023 32.2254 0.59375 29.6094 0.59375C26.9934 0.59375 24.4938 1.02023 22.5713 1.79453C21.4352 2.25211 20.5678 2.81133 20 3.43883C19.4322 2.81133 18.5648 2.25219 17.4287 1.79461C15.5062 1.02023 13.0066 0.59375 10.3906 0.59375C7.77461 0.59375 5.27508 1.02023 3.35258 1.79453C1.19062 2.66531 0 3.90359 0 5.28125V24.0312C0 25.4089 1.19062 26.6472 3.35258 27.518C5.14062 28.2381 7.42797 28.6569 9.84375 28.712V28.7188C9.84375 31.3911 14.21 33.4062 20 33.4062C25.79 33.4062 30.1562 31.3911 30.1562 28.7188V28.712C32.572 28.6569 34.8594 28.2381 36.6474 27.518C38.8094 26.6472 40 25.4089 40 24.0312V5.28125C40 3.90359 38.8094 2.66531 36.6474 1.79453ZM38.4375 19.3438C38.4375 20.0107 37.5279 20.7913 36.0637 21.3811C34.4789 22.0194 32.3513 22.4055 30.1562 22.461V19.3438C30.1562 19.3415 30.1561 19.3392 30.1561 19.337C32.572 19.282 34.8593 18.8632 36.6475 18.143C37.3493 17.8603 37.948 17.5387 38.4376 17.1864L38.4375 19.3438ZM19.2188 9.96875C19.2188 10.6357 18.3091 11.4163 16.8449 12.0061C15.1288 12.6973 12.7762 13.0938 10.3906 13.0938C8.005 13.0938 5.6525 12.6973 3.93633 12.0061C2.47211 11.4163 1.5625 10.6357 1.5625 9.96875V7.81141C2.05211 8.16375 2.65078 8.48531 3.35258 8.76797C5.27508 9.54227 7.77461 9.96875 10.3906 9.96875C13.0066 9.96875 15.5062 9.54227 17.4287 8.76797C18.1305 8.48531 18.7291 8.16375 19.2188 7.81141V9.96875ZM3.35258 13.4555C5.27508 14.2298 7.77461 14.6562 10.3906 14.6562C13.0066 14.6562 15.5062 14.2298 17.4287 13.4555C18.1305 13.1728 18.7291 12.8513 19.2188 12.4989V14.6701C17.1977 14.7385 15.2594 15.0702 13.6916 15.6223C12.1192 16.1762 10.9877 16.9147 10.3724 17.781C7.99305 17.779 5.64812 17.383 3.93633 16.6936C2.47211 16.1038 1.5625 15.3232 1.5625 14.6562V12.4989C2.05211 12.8513 2.65078 13.1728 3.35258 13.4555ZM1.5625 17.1864C2.05211 17.5387 2.65078 17.8603 3.35258 18.143C5.1407 18.8631 7.42812 19.2819 9.84398 19.337C9.84398 19.3393 9.84383 19.3416 9.84383 19.3438V22.461C7.64875 22.4055 5.52117 22.0194 3.93641 21.3811C2.47211 20.7913 1.5625 20.0107 1.5625 19.3438V17.1864ZM11.4889 18.9599C12.0679 17.6125 15.4097 16.2188 20 16.2188C24.5903 16.2188 27.9321 17.6125 28.5105 18.9584C28.5666 19.0897 28.5938 19.2157 28.5938 19.3438C28.5938 20.0306 27.747 20.7936 26.3285 21.3846C24.6507 22.0837 22.4032 22.4688 20 22.4688C17.5968 22.4688 15.3493 22.0837 13.6715 21.3846C12.253 20.7936 11.4062 20.0306 11.4062 19.3438C11.4062 19.2157 11.4335 19.0897 11.4889 18.9599ZM38.4375 14.6562C38.4375 15.3232 37.5279 16.1038 36.0637 16.6936C34.352 17.383 32.0071 17.779 29.6278 17.781C29.013 16.9152 27.8813 16.1763 26.3084 15.6223C24.7406 15.0702 22.8023 14.7385 20.7812 14.6701V12.4989C21.2709 12.8513 21.8695 13.1728 22.5713 13.4555C24.4938 14.2298 26.9934 14.6562 29.6094 14.6562C32.2254 14.6562 34.7249 14.2298 36.6474 13.4555C37.3492 13.1728 37.9479 12.8513 38.4375 12.4989V14.6562ZM38.4375 9.96875C38.4375 10.6357 37.5279 11.4163 36.0637 12.0061C34.3475 12.6973 31.995 13.0938 29.6094 13.0938C27.2238 13.0938 24.8713 12.6973 23.1551 12.0061C21.6909 11.4163 20.7812 10.6357 20.7812 9.96875V7.81141C21.2709 8.16375 21.8695 8.48531 22.5713 8.76797C24.4938 9.54227 26.9934 9.96875 29.6094 9.96875C32.2254 9.96875 34.7249 9.54227 36.6474 8.76797C37.3492 8.48531 37.9479 8.16375 38.4375 7.81141V9.96875ZM23.1551 3.24391C24.8713 2.55266 27.2238 2.15625 29.6094 2.15625C31.995 2.15625 34.3475 2.55266 36.0637 3.24391C37.5279 3.83367 38.4375 4.6143 38.4375 5.28125C38.4375 5.9482 37.5279 6.72883 36.0637 7.31859C34.3475 8.00984 31.995 8.40625 29.6094 8.40625C27.2238 8.40625 24.8713 8.00984 23.1551 7.31859C21.6909 6.72883 20.7812 5.9482 20.7812 5.28125C20.7812 4.6143 21.6909 3.83367 23.1551 3.24391ZM3.93633 3.24391C5.6525 2.55266 8.005 2.15625 10.3906 2.15625C12.7762 2.15625 15.1288 2.55266 16.8449 3.24391C18.3091 3.83367 19.2188 4.6143 19.2188 5.28125C19.2188 5.9482 18.3091 6.72883 16.8449 7.31859C15.1288 8.00984 12.7762 8.40625 10.3906 8.40625C8.005 8.40625 5.6525 8.00984 3.93633 7.31859C2.47211 6.72883 1.5625 5.9482 1.5625 5.28125C1.5625 4.6143 2.47211 3.83367 3.93633 3.24391ZM3.93633 26.0686C2.47211 25.4788 1.5625 24.6982 1.5625 24.0312V21.8739C2.05211 22.2262 2.65078 22.5478 3.35258 22.8305C5.14062 23.5506 7.42797 23.9694 9.84375 24.0245V27.1486C7.64867 27.093 5.52109 26.707 3.93633 26.0686ZM26.3285 30.7596C24.6507 31.4587 22.4032 31.8438 20 31.8438C17.5968 31.8438 15.3493 31.4587 13.6715 30.7596C12.253 30.1686 11.4062 29.4056 11.4062 28.7188V26.607C11.5832 26.735 11.7788 26.8623 11.9956 26.9877C13.2088 27.6898 14.8595 28.2091 16.7694 28.4894C16.8079 28.495 16.846 28.4977 16.8838 28.4977C17.2651 28.4977 17.5988 28.2183 17.6558 27.8298C17.7184 27.403 17.4231 27.0061 16.9963 26.9434C13.3655 26.4104 11.4062 25.0452 11.4062 24.0312V21.9125C13.1745 23.2064 16.2959 24.0312 20 24.0312C23.7041 24.0312 26.8255 23.2064 28.5938 21.9125V24.0312C28.5938 25.0452 26.6345 26.4104 23.0037 26.9434C22.5768 27.0061 22.2815 27.403 22.3442 27.8298C22.4013 28.2184 22.7349 28.4977 23.1162 28.4977C23.1539 28.4977 23.1922 28.495 23.2306 28.4894C25.1404 28.2091 26.7911 27.6898 28.0044 26.9877C28.2212 26.8623 28.4168 26.735 28.5938 26.607V28.7188C28.5938 29.4056 27.747 30.1686 26.3285 30.7596ZM36.0637 26.0686C34.4789 26.7069 32.3513 27.093 30.1562 27.1485V24.0245C32.572 23.9693 34.8594 23.5505 36.6474 22.8304C37.3492 22.5477 37.9479 22.2262 38.4375 21.8738V24.0312C38.4375 24.6982 37.5279 25.4788 36.0637 26.0686Z"
    />
</svg>
