<svg width="40" height="30" viewBox="0 0 40 30" fill="#4945FF" xmlns="http://www.w3.org/2000/svg">
    <path d="M38.6422 13.4774L35.9185 12.2986L33.6055 7.79765C32.9804 6.56525 31.7122 5.79723 30.328 5.80616H26.345V4.68093C26.345 2.64479 24.7197 0.983734 22.6836 0.983734H3.64391C1.60778 0.983734 0.000298655 2.65372 0.000298655 4.68093V21.9167C-0.0175622 23.158 0.973715 24.1761 2.21504 24.1939C2.22397 24.1939 2.2329 24.1939 2.25077 24.1939H2.72408C2.72408 24.2832 2.71515 24.3189 2.71515 24.3725C2.70622 26.9266 4.76915 29.0074 7.32325 29.0163C9.87735 29.0253 11.9581 26.9623 11.9671 24.4082C11.9671 24.3904 11.9671 24.3815 11.9671 24.3636C11.9671 24.3011 11.9671 24.2743 11.9581 24.185H27.3453C27.3453 24.2743 27.3453 24.31 27.3453 24.3636C27.3363 26.9177 29.3993 28.9985 31.9534 29.0074C34.5075 29.0163 36.5882 26.9534 36.5972 24.3993C36.5972 24.3815 36.5972 24.3725 36.5972 24.3547C36.5972 24.2921 36.5972 24.2654 36.5972 24.1761H37.7492C38.9905 24.1761 39.9997 23.1669 39.9997 21.9256C39.9997 21.9167 39.9997 21.9077 39.9997 21.8899V15.5493C40.0175 14.6741 39.4817 13.8435 38.6422 13.4774ZM7.35004 27.2392C5.77828 27.2392 4.51016 25.9711 4.51016 24.3993C4.51016 22.8276 5.77828 21.5594 7.35004 21.5594C8.92179 21.5594 10.1899 22.8276 10.1899 24.3993C10.1899 25.9621 8.91286 27.2392 7.35004 27.2392ZM24.559 22.4257H11.5384C10.7883 20.7914 9.14505 19.7466 7.35004 19.7555C5.54609 19.7466 3.91182 20.7825 3.16167 22.4257H2.25077C1.97392 22.4257 1.78638 22.2114 1.78638 21.9345V17.3353H24.559V22.4257ZM24.559 4.68986V15.5493H1.78638V4.68986C1.78638 3.645 2.59905 2.77875 3.64391 2.77875H22.6836C23.7284 2.78768 24.5679 3.645 24.559 4.68093V4.68986ZM26.345 7.60118H30.328C31.0335 7.59225 31.6944 7.97626 32.0248 8.61032L33.8109 12.0664H26.345V7.60118V7.60118ZM31.9801 27.2392C30.4084 27.2392 29.1403 25.9711 29.1403 24.3993C29.1403 22.8276 30.4084 21.5594 31.9801 21.5594C33.5519 21.5594 34.82 22.8276 34.82 24.3993C34.82 25.9621 33.5519 27.2392 31.9801 27.2392ZM38.2225 21.9345C38.2225 22.2114 38.035 22.4257 37.7581 22.4257H36.1685C35.0879 20.1127 32.3374 19.1125 30.0244 20.1931C29.042 20.6485 28.2472 21.4433 27.7918 22.4257H26.345V13.8525H35.0969L37.9367 15.1027C38.1153 15.192 38.2314 15.3885 38.2225 15.585V21.9345Z"
          />
</svg>
