<svg width="38" height="38" viewBox="0 0 38 38" fill="#4945FF" xmlns="http://www.w3.org/2000/svg">
    <path d="M36.2375 2.65001L35.35 1.76251C34.2953 0.709134 32.8656 0.117462 31.375 0.117462C29.8844 0.117462 28.4547 0.709134 27.4 1.76251L24.3062 4.85626L23.2687 3.81876C22.9585 3.51262 22.5521 3.32302 22.1182 3.28202C21.6843 3.24103 21.2496 3.35115 20.8875 3.59376L15.6125 7.18126C12.2959 9.43532 9.43529 12.2959 7.18123 15.6125L3.59373 20.8875C3.35112 21.2496 3.241 21.6843 3.28199 22.1182C3.32299 22.5521 3.51259 22.9586 3.81873 23.2688L4.85623 24.3063L1.76248 27.4C0.709104 28.4547 0.117432 29.8844 0.117432 31.375C0.117432 32.8656 0.709104 34.2953 1.76248 35.35L2.64998 36.2375C3.70508 37.2901 5.13461 37.8813 6.62498 37.8813C8.11536 37.8813 9.54489 37.2901 10.6 36.2375L13.6937 33.1438L14.7312 34.1813C14.9064 34.355 15.1142 34.4925 15.3427 34.5858C15.5711 34.6791 15.8157 34.7264 16.0625 34.725C16.4362 34.7245 16.8015 34.6136 17.1125 34.4063L22.3875 30.8188C25.7041 28.5647 28.5647 25.7041 30.8187 22.3875L34.4062 17.1125C34.6136 16.8015 34.7244 16.4363 34.725 16.0625C34.7264 15.8157 34.6791 15.5711 34.5858 15.3427C34.4925 15.1142 34.355 14.9065 34.1812 14.7313L33.1437 13.6938L36.2375 10.6C37.2909 9.54532 37.8825 8.11564 37.8825 6.62501C37.8825 5.13438 37.2909 3.7047 36.2375 2.65001ZM9.71873 35.35C8.89768 36.1695 7.78503 36.6298 6.62498 36.6298C5.46494 36.6298 4.35229 36.1695 3.53123 35.35L2.64998 34.4688C1.83048 33.6477 1.37023 32.5351 1.37023 31.375C1.37023 30.215 1.83048 29.1023 2.64998 28.2813L5.74373 25.1875L6.18123 25.6313L3.08748 28.725C2.38523 29.4281 1.99078 30.3813 1.99078 31.375C1.99078 32.3688 2.38523 33.3219 3.08748 34.025L3.97498 34.9125C4.679 35.6131 5.63178 36.0064 6.62498 36.0064C7.61818 36.0064 8.57097 35.6131 9.27498 34.9125L12.3687 31.8188L12.8125 32.2563L9.71873 35.35ZM7.06873 26.5125L11.4875 30.9313L8.39373 34.025C7.92416 34.4932 7.2881 34.7562 6.62498 34.7562C5.96187 34.7562 5.3258 34.4932 4.85623 34.025L3.97498 33.1438C3.50676 32.6742 3.24383 32.0381 3.24383 31.375C3.24383 30.7119 3.50676 30.0758 3.97498 29.6063L7.06873 26.5125ZM33.2937 15.6188C33.3967 15.7216 33.4606 15.8572 33.4742 16.0021C33.4879 16.147 33.4506 16.2922 33.3687 16.4125L29.7875 21.6813C27.6188 24.8687 24.8687 27.6188 21.6812 29.7875L16.4125 33.3688C16.2921 33.4506 16.147 33.488 16.0021 33.4743C15.8572 33.4606 15.7216 33.3967 15.6187 33.2938L12.8125 30.4938V30.4875L10.1625 27.8375L4.70623 22.3813C4.60326 22.2784 4.53942 22.1428 4.52573 21.9979C4.51204 21.853 4.54935 21.7079 4.63123 21.5875L8.21248 16.3188C10.3812 13.1313 13.1313 10.3812 16.3187 8.21251L21.5875 4.63126C21.6923 4.55972 21.8168 4.52258 21.9437 4.52501C22.1077 4.5257 22.2648 4.5908 22.3812 4.70626L25.1875 7.50626V7.51251L33.2937 15.6188ZM26.5125 7.06876L29.6062 3.97501C30.0758 3.50679 30.7119 3.24386 31.375 3.24386C32.0381 3.24386 32.6742 3.50679 33.1437 3.97501L34.025 4.85626C34.4932 5.32583 34.7561 5.96189 34.7561 6.62501C34.7561 7.28813 34.4932 7.92419 34.025 8.39376L30.9312 11.4875L26.5125 7.06876ZM32.2562 12.8125L31.8187 12.3688L34.9125 9.27501C35.6147 8.57189 36.0092 7.61877 36.0092 6.62501C36.0092 5.63126 35.6147 4.67814 34.9125 3.97501L34.025 3.08751C33.321 2.38694 32.3682 1.99364 31.375 1.99364C30.3818 1.99364 29.429 2.38694 28.725 3.08751L25.6312 6.18126L25.1875 5.74376L28.2812 2.65001C29.1023 1.83051 30.2149 1.37026 31.375 1.37026C32.535 1.37026 33.6477 1.83051 34.4687 2.65001L35.35 3.53126C36.1695 4.35231 36.6297 5.46497 36.6297 6.62501C36.6297 7.78506 36.1695 8.89771 35.35 9.71876L32.2562 12.8125Z"
    />
    <path d="M27.3968 13.255C27.2796 13.1378 27.1207 13.072 26.955 13.072C26.7892 13.072 26.6303 13.1378 26.5131 13.255L13.255 26.5131C13.1953 26.5708 13.1476 26.6398 13.1149 26.716C13.0821 26.7923 13.0649 26.8743 13.0642 26.9573C13.0635 27.0402 13.0793 27.1225 13.1107 27.1994C13.1421 27.2762 13.1885 27.346 13.2472 27.4046C13.3059 27.4633 13.3757 27.5097 13.4525 27.5412C13.5293 27.5726 13.6116 27.5884 13.6946 27.5877C13.7776 27.5869 13.8596 27.5697 13.9358 27.537C14.0121 27.5042 14.081 27.4566 14.1387 27.3969L27.3968 14.1388C27.514 14.0216 27.5798 13.8626 27.5798 13.6969C27.5798 13.5312 27.514 13.3722 27.3968 13.255Z"
    />
    <path d="M24.745 10.6032C24.6278 10.486 24.4688 10.4202 24.3031 10.4202C24.1374 10.4202 23.9784 10.486 23.8612 10.6032L10.6031 23.8613C10.5434 23.9189 10.4958 23.9879 10.463 24.0642C10.4303 24.1404 10.413 24.2224 10.4123 24.3054C10.4116 24.3884 10.4274 24.4707 10.4588 24.5475C10.4903 24.6243 10.5367 24.6941 10.5954 24.7528C10.654 24.8115 10.7238 24.8579 10.8006 24.8893C10.8774 24.9207 10.9597 24.9365 11.0427 24.9358C11.1257 24.9351 11.2077 24.9178 11.284 24.8851C11.3602 24.8523 11.4292 24.8047 11.4868 24.745L24.745 11.4869C24.8621 11.3697 24.928 11.2108 24.928 11.045C24.928 10.8793 24.8621 10.7204 24.745 10.6032Z"
    />
    <path d="M22.0931 7.95124C21.9759 7.83407 21.817 7.76825 21.6512 7.76825C21.4855 7.76825 21.3266 7.83407 21.2094 7.95124L7.95124 21.21C7.89155 21.2676 7.84393 21.3366 7.81118 21.4128C7.77842 21.4891 7.76118 21.5711 7.76046 21.6541C7.75974 21.7371 7.77555 21.8194 7.80698 21.8962C7.8384 21.973 7.88481 22.0428 7.9435 22.1015C8.00218 22.1602 8.07196 22.2066 8.14877 22.238C8.22558 22.2694 8.30788 22.2852 8.39087 22.2845C8.47385 22.2838 8.55587 22.2665 8.63212 22.2338C8.70837 22.201 8.77734 22.1534 8.83499 22.0937L22.0931 8.83499C22.2103 8.71778 22.2761 8.55884 22.2761 8.39312C22.2761 8.22739 22.2103 8.06844 22.0931 7.95124Z"
    />
    <path d="M15.9069 29.165C15.8472 29.2227 15.7996 29.2916 15.7668 29.3679C15.7341 29.4441 15.7168 29.5262 15.7161 29.6091C15.7154 29.6921 15.7312 29.7744 15.7626 29.8512C15.794 29.9281 15.8404 29.9978 15.8991 30.0565C15.9578 30.1152 16.0276 30.1616 16.1044 30.193C16.1812 30.2245 16.2635 30.2403 16.3465 30.2396C16.4295 30.2388 16.5115 30.2216 16.5877 30.1888C16.664 30.1561 16.733 30.1085 16.7906 30.0488L30.0487 16.79C30.1084 16.7324 30.156 16.6634 30.1888 16.5872C30.2216 16.5109 30.2388 16.4289 30.2395 16.3459C30.2402 16.2629 30.2244 16.1806 30.193 16.1038C30.1616 16.027 30.1152 15.9572 30.0565 15.8985C29.9978 15.8399 29.928 15.7935 29.8512 15.762C29.7744 15.7306 29.6921 15.7148 29.6091 15.7155C29.5261 15.7162 29.4441 15.7335 29.3679 15.7662C29.2916 15.799 29.2226 15.8466 29.165 15.9063L15.9069 29.165Z"
    />
</svg>
