<svg width="161" height="20" viewBox="0 0 161 20" fill="none" xmlns="http://www.w3.org/2000/svg">
<path d="M10 0L12.2451 6.90983H19.5106L13.6327 11.1803L15.8779 18.0902L10 13.8197L4.12215 18.0902L6.36729 11.1803L0.489435 6.90983H7.75486L10 0Z" fill="#FFCF53"/>
<path d="M37 0L39.2451 6.90983H46.5106L40.6327 11.1803L42.8779 18.0902L37 13.8197L31.1221 18.0902L33.3673 11.1803L27.4894 6.90983H34.7549L37 0Z" fill="#FFCF53"/>
<path d="M64 0L66.2451 6.90983H73.5106L67.6327 11.1803L69.8779 18.0902L64 13.8197L58.1221 18.0902L60.3673 11.1803L54.4894 6.90983H61.7549L64 0Z" fill="#FFCF53"/>
<path d="M91 0L93.2451 6.90983H100.511L94.6327 11.1803L96.8779 18.0902L91 13.8197L85.1221 18.0902L87.3673 11.1803L81.4894 6.90983H88.7549L91 0Z" fill="#FFCF53"/>
<path d="M118 0L120.245 6.90983H127.511L121.633 11.1803L123.878 18.0902L118 13.8197L112.122 18.0902L114.367 11.1803L108.489 6.90983H115.755L118 0Z" fill="#FFCF53"/>
<path d="M138.08 16.716C137.557 15.8573 137.156 14.8727 136.876 13.762C136.596 12.642 136.456 11.4427 136.456 10.164C136.456 8.88533 136.596 7.686 136.876 6.566C137.156 5.43667 137.557 4.452 138.08 3.612H139.032C138.481 4.55467 138.075 5.56733 137.814 6.65C137.562 7.73267 137.436 8.904 137.436 10.164C137.436 11.424 137.562 12.5953 137.814 13.678C138.075 14.7607 138.481 15.7733 139.032 16.716H138.08ZM147.027 13.104V14H140.153V13.286L144.227 9.296C144.741 8.792 145.086 8.358 145.263 7.994C145.45 7.62067 145.543 7.24733 145.543 6.874C145.543 6.29533 145.343 5.84733 144.941 5.53C144.549 5.20333 143.985 5.04 143.247 5.04C142.099 5.04 141.208 5.404 140.573 6.132L139.859 5.516C140.242 5.068 140.727 4.72267 141.315 4.48C141.913 4.23733 142.585 4.116 143.331 4.116C144.33 4.116 145.119 4.354 145.697 4.83C146.285 5.29667 146.579 5.94067 146.579 6.762C146.579 7.266 146.467 7.75133 146.243 8.218C146.019 8.68467 145.595 9.22133 144.969 9.828L141.637 13.104H147.027ZM151.624 8.4C152.651 8.456 153.43 8.736 153.962 9.24C154.504 9.73467 154.774 10.3833 154.774 11.186C154.774 11.746 154.639 12.2453 154.368 12.684C154.098 13.1133 153.696 13.454 153.164 13.706C152.632 13.958 151.984 14.084 151.218 14.084C150.509 14.084 149.837 13.972 149.202 13.748C148.577 13.5147 148.073 13.2067 147.69 12.824L148.18 12.026C148.507 12.362 148.941 12.6373 149.482 12.852C150.024 13.0573 150.602 13.16 151.218 13.16C152.021 13.16 152.642 12.9873 153.08 12.642C153.519 12.2873 153.738 11.802 153.738 11.186C153.738 10.5793 153.519 10.1033 153.08 9.758C152.642 9.41267 151.979 9.24 151.092 9.24H150.392V8.498L153.108 5.096H148.096V4.2H154.396V4.914L151.624 8.4ZM156.027 16.716C156.577 15.7733 156.983 14.7653 157.245 13.692C157.506 12.6093 157.637 11.4333 157.637 10.164C157.637 8.89467 157.506 7.72333 157.245 6.65C156.983 5.56733 156.577 4.55467 156.027 3.612H156.979C157.501 4.452 157.903 5.43667 158.183 6.566C158.472 7.686 158.617 8.88533 158.617 10.164C158.617 11.4427 158.477 12.642 158.197 13.762C157.917 14.882 157.511 15.8667 156.979 16.716H156.027Z" fill="#2B2A2A"/>
</svg>
